<mxfile host="app.diagrams.net" modified="2021-08-04T20:53:54.434Z" agent="5.0 (Windows)" etag="ZJGaIOruFHWBkFS6iAmH" version="14.9.4" type="github">
  <diagram name="Page-1" id="929967ad-93f9-6ef4-fab6-5d389245f69c">
    <mxGraphModel dx="760" dy="394" grid="1" gridSize="10" guides="1" tooltips="1" connect="1" arrows="1" fold="1" page="1" pageScale="1.5" pageWidth="1169" pageHeight="826" background="none" math="0" shadow="0">
      <root>
        <mxCell id="0" style=";html=1;" />
        <mxCell id="1" style=";html=1;" parent="0" />
        <mxCell id="1672d66443f91eb5-1" value="" style="html=1;strokeWidth=1;shape=mxgraph.sysml.package;html=1;overflow=fill;whiteSpace=wrap;fillColor=none;gradientColor=none;fontSize=12;align=center;labelX=327.64;" parent="1" vertex="1">
          <mxGeometry x="317" y="295" width="1120" height="650" as="geometry" />
        </mxCell>
        <mxCell id="1672d66443f91eb5-2" value="User Sign in/Sign up as Doctor/Patient" style="shape=folder;tabWidth=80;tabHeight=20;tabPosition=left;strokeWidth=1;html=1;whiteSpace=wrap;align=center;fontSize=12;fontStyle=1" parent="1" vertex="1">
          <mxGeometry x="437" y="355" width="160" height="90" as="geometry" />
        </mxCell>
        <mxCell id="1672d66443f91eb5-3" value="&lt;b&gt;Consultion.&lt;/b&gt;&lt;div&gt;Commucation with his Patient/Analysis&lt;br&gt;&lt;/div&gt;" style="shape=note;size=15;align=left;spacingLeft=10;html=1;whiteSpace=wrap;strokeColor=#000000;strokeWidth=1;fillColor=#ffffff;fontSize=12;" parent="1" vertex="1">
          <mxGeometry x="867" y="365" width="300" height="60" as="geometry" />
        </mxCell>
        <mxCell id="1672d66443f91eb5-13" style="edgeStyle=orthogonalEdgeStyle;rounded=0;html=1;jettySize=auto;orthogonalLoop=1;endArrow=circlePlus;endFill=0;" parent="1" source="1672d66443f91eb5-4" target="1672d66443f91eb5-2" edge="1">
          <mxGeometry relative="1" as="geometry">
            <Array as="points">
              <mxPoint x="477" y="485" />
              <mxPoint x="517" y="485" />
            </Array>
          </mxGeometry>
        </mxCell>
        <mxCell id="1672d66443f91eb5-4" value="&lt;p&gt;&amp;lt;&amp;lt;requirement&amp;gt;&amp;gt;&lt;/p&gt;&lt;p&gt;Paiten Dashbaord&lt;br&gt;&lt;/p&gt;" style="shape=rect;html=1;overflow=fill;whiteSpace=wrap;align=center;fontStyle=1" parent="1" vertex="1">
          <mxGeometry x="397" y="535" width="160" height="80" as="geometry" />
        </mxCell>
        <mxCell id="1672d66443f91eb5-15" style="edgeStyle=orthogonalEdgeStyle;rounded=0;html=1;endArrow=circlePlus;endFill=0;jettySize=auto;orthogonalLoop=1;" parent="1" source="1672d66443f91eb5-5" target="1672d66443f91eb5-2" edge="1">
          <mxGeometry relative="1" as="geometry">
            <Array as="points">
              <mxPoint x="717" y="485" />
              <mxPoint x="517" y="485" />
            </Array>
          </mxGeometry>
        </mxCell>
        <mxCell id="1672d66443f91eb5-5" value="&lt;p&gt;&amp;lt;&amp;lt;requirement&amp;gt;&amp;gt;&lt;/p&gt;&lt;p&gt;Doctor Dashboard&lt;br&gt;&lt;/p&gt;" style="shape=rect;html=1;overflow=fill;whiteSpace=wrap;align=center;fontStyle=1" parent="1" vertex="1">
          <mxGeometry x="637" y="535" width="160" height="70" as="geometry" />
        </mxCell>
        <mxCell id="1672d66443f91eb5-21" style="edgeStyle=none;rounded=0;html=1;dashed=1;endArrow=none;endFill=0;jettySize=auto;orthogonalLoop=1;" parent="1" source="1672d66443f91eb5-6" target="1672d66443f91eb5-9" edge="1">
          <mxGeometry relative="1" as="geometry" />
        </mxCell>
        <mxCell id="1672d66443f91eb5-6" value="&lt;p&gt;&amp;lt;&amp;lt;Wating Room&amp;gt;&amp;gt;&lt;/p&gt;&lt;p&gt;PATIENT QUEUE&lt;/p&gt;" style="shape=rect;html=1;overflow=fill;whiteSpace=wrap;align=center;fontStyle=1" parent="1" vertex="1">
          <mxGeometry x="1107" y="535" width="160" height="70" as="geometry" />
        </mxCell>
        <mxCell id="1672d66443f91eb5-16" style="edgeStyle=orthogonalEdgeStyle;rounded=0;html=1;endArrow=circlePlus;endFill=0;jettySize=auto;orthogonalLoop=1;entryX=0.25;entryY=1;" parent="1" source="1672d66443f91eb5-7" target="1672d66443f91eb5-5" edge="1">
          <mxGeometry relative="1" as="geometry">
            <Array as="points">
              <mxPoint x="627" y="635" />
              <mxPoint x="677" y="635" />
            </Array>
          </mxGeometry>
        </mxCell>
        <mxCell id="1672d66443f91eb5-7" value="&lt;p&gt;&amp;lt;&amp;lt;Invition link for Patient&amp;gt;&amp;gt;&lt;/p&gt;&lt;p&gt;Via Email/TextMessage&lt;br&gt;&lt;/p&gt;" style="shape=rect;html=1;overflow=fill;whiteSpace=wrap;align=center;fontStyle=1" parent="1" vertex="1">
          <mxGeometry x="547" y="655" width="160" height="70" as="geometry" />
        </mxCell>
        <mxCell id="1672d66443f91eb5-17" style="edgeStyle=orthogonalEdgeStyle;rounded=0;html=1;endArrow=circlePlus;endFill=0;jettySize=auto;orthogonalLoop=1;entryX=0.5;entryY=1;" parent="1" source="1672d66443f91eb5-8" target="1672d66443f91eb5-5" edge="1">
          <mxGeometry relative="1" as="geometry">
            <Array as="points">
              <mxPoint x="817" y="635" />
              <mxPoint x="717" y="635" />
            </Array>
          </mxGeometry>
        </mxCell>
        <mxCell id="1672d66443f91eb5-8" value="&lt;p&gt;&amp;lt;&amp;lt;Cosultion Room&amp;gt;&amp;gt;&lt;/p&gt;&lt;p&gt;Room Management&lt;br&gt;&lt;/p&gt;" style="shape=rect;html=1;overflow=fill;whiteSpace=wrap;align=center;fontStyle=1" parent="1" vertex="1">
          <mxGeometry x="737" y="655" width="160" height="70" as="geometry" />
        </mxCell>
        <mxCell id="1672d66443f91eb5-18" style="edgeStyle=orthogonalEdgeStyle;rounded=0;html=1;endArrow=circlePlus;endFill=0;jettySize=auto;orthogonalLoop=1;entryX=0.75;entryY=1;" parent="1" source="1672d66443f91eb5-9" target="1672d66443f91eb5-5" edge="1">
          <mxGeometry relative="1" as="geometry">
            <Array as="points">
              <mxPoint x="1017" y="625" />
              <mxPoint x="757" y="625" />
            </Array>
          </mxGeometry>
        </mxCell>
        <mxCell id="1672d66443f91eb5-22" style="edgeStyle=none;rounded=0;html=1;dashed=1;endArrow=none;endFill=0;jettySize=auto;orthogonalLoop=1;" parent="1" source="1672d66443f91eb5-9" target="1672d66443f91eb5-3" edge="1">
          <mxGeometry relative="1" as="geometry" />
        </mxCell>
        <mxCell id="1672d66443f91eb5-9" value="&lt;p&gt;&amp;lt;&amp;lt;Meetinig&amp;gt;&amp;gt;&lt;/p&gt;&lt;p&gt;Meeting Joining&lt;br&gt;&lt;/p&gt;" style="shape=rect;html=1;overflow=fill;whiteSpace=wrap;align=center;fontStyle=1" parent="1" vertex="1">
          <mxGeometry x="937" y="655" width="160" height="70" as="geometry" />
        </mxCell>
        <mxCell id="1672d66443f91eb5-14" style="edgeStyle=orthogonalEdgeStyle;rounded=0;html=1;endArrow=circlePlus;endFill=0;jettySize=auto;orthogonalLoop=1;" parent="1" source="1672d66443f91eb5-10" target="1672d66443f91eb5-4" edge="1">
          <mxGeometry relative="1" as="geometry">
            <Array as="points">
              <mxPoint x="477" y="755" />
              <mxPoint x="477" y="755" />
            </Array>
          </mxGeometry>
        </mxCell>
        <mxCell id="1672d66443f91eb5-10" value="&lt;p style=&quot;margin: 0px ; margin-top: 4px ; text-align: center&quot;&gt;&amp;lt;&amp;lt;Join New Appointment&amp;gt;&amp;gt;&lt;br&gt;&lt;b&gt;Find a Doctor&lt;br&gt;&lt;/b&gt;&lt;/p&gt;&lt;hr&gt;&lt;p style=&quot;margin: 0px ; margin-left: 8px ; text-align: left&quot;&gt;user-name = &quot;Dr.Smith&quot;&lt;/p&gt;&lt;p style=&quot;margin: 0px ; margin-left: 8px ; text-align: left&quot;&gt;Discription=&quot;General Physician.&quot;&lt;/p&gt;" style="shape=rect;html=1;overflow=fill;whiteSpace=wrap;" parent="1" vertex="1">
          <mxGeometry x="427" y="785" width="290" height="120" as="geometry" />
        </mxCell>
        <mxCell id="1672d66443f91eb5-23" value="Title" style="text;strokeColor=none;fillColor=none;html=1;fontSize=24;fontStyle=1;verticalAlign=middle;align=center;" parent="1" vertex="1">
          <mxGeometry x="120" y="40" width="1510" height="40" as="geometry" />
        </mxCell>
        <mxCell id="wV7_GHCUD5BiHeBpMKE9-3" style="edgeStyle=orthogonalEdgeStyle;rounded=0;html=1;endArrow=circlePlus;endFill=0;jettySize=auto;orthogonalLoop=1;" edge="1" parent="1">
          <mxGeometry relative="1" as="geometry">
            <Array as="points">
              <mxPoint x="529.97" y="755" />
              <mxPoint x="529.97" y="755" />
            </Array>
            <mxPoint x="530" y="755" as="sourcePoint" />
            <mxPoint x="530.0044827586207" y="615" as="targetPoint" />
          </mxGeometry>
        </mxCell>
        <mxCell id="wV7_GHCUD5BiHeBpMKE9-6" value="&lt;p&gt;&amp;lt;&amp;lt;Invition link for Patient&amp;gt;&amp;gt;&lt;/p&gt;&lt;p&gt;Via Email/TextMessage&lt;br&gt;&lt;/p&gt;" style="shape=rect;html=1;overflow=fill;whiteSpace=wrap;align=center;fontStyle=1" vertex="1" parent="1">
          <mxGeometry x="760" y="785" width="160" height="70" as="geometry" />
        </mxCell>
        <mxCell id="wV7_GHCUD5BiHeBpMKE9-7" value="&lt;p&gt;&amp;lt;&amp;lt;Invition link for Patient&amp;gt;&amp;gt;&lt;/p&gt;&lt;p&gt;Via Email/TextMessage&lt;br&gt;&lt;/p&gt;" style="shape=rect;html=1;overflow=fill;whiteSpace=wrap;align=center;fontStyle=1" vertex="1" parent="1">
          <mxGeometry x="937" y="785" width="160" height="70" as="geometry" />
        </mxCell>
        <mxCell id="wV7_GHCUD5BiHeBpMKE9-8" value="E Health Care" style="text;html=1;strokeColor=none;fillColor=none;align=center;verticalAlign=middle;whiteSpace=wrap;rounded=0;" vertex="1" parent="1">
          <mxGeometry x="370" y="295" width="90" height="15" as="geometry" />
        </mxCell>
        <mxCell id="wV7_GHCUD5BiHeBpMKE9-10" value="" style="endArrow=none;html=1;" edge="1" parent="1" target="wV7_GHCUD5BiHeBpMKE9-6">
          <mxGeometry width="50" height="50" relative="1" as="geometry">
            <mxPoint x="530" y="750" as="sourcePoint" />
            <mxPoint x="550" y="740" as="targetPoint" />
            <Array as="points">
              <mxPoint x="650" y="750" />
            </Array>
          </mxGeometry>
        </mxCell>
      </root>
    </mxGraphModel>
  </diagram>
</mxfile>
